<svg xmlns="http://www.w3.org/2000/svg" xmlns:xlink="http://www.w3.org/1999/xlink" width="500" zoomAndPan="magnify" viewBox="0 0 375 374.999991" height="500" preserveAspectRatio="xMidYMid meet" version="1.0"><defs><g/><clipPath id="ac588fb79a"><path d="M 29.550781 98.226562 L 112.050781 98.226562 L 112.050781 223.476562 L 29.550781 223.476562 Z M 29.550781 98.226562 " clip-rule="nonzero"/></clipPath><clipPath id="39ac88200f"><path d="M 84.828125 99.113281 C 84.074219 98.550781 83.144531 98.226562 82.144531 98.226562 C 79.652344 98.226562 77.609375 100.269531 77.609375 102.769531 L 77.609375 140.902344 L 70.804688 140.902344 C 48.089844 140.902344 29.597656 159.429688 29.597656 182.183594 C 29.597656 204.941406 48.089844 223.476562 70.804688 223.476562 C 93.515625 223.476562 112.011719 204.945312 112.011719 182.183594 L 112.011719 166.277344 L 102.9375 166.277344 L 102.9375 182.183594 C 102.9375 199.925781 88.511719 214.382812 70.804688 214.382812 C 53.101562 214.382812 38.671875 199.925781 38.671875 182.183594 C 38.671875 164.449219 53.101562 149.992188 70.804688 149.992188 L 77.609375 149.992188 L 77.609375 166.28125 L 70.804688 166.28125 C 62.070312 166.28125 54.925781 173.441406 54.925781 182.191406 C 54.925781 190.941406 62.070312 198.105469 70.804688 198.105469 C 79.535156 198.105469 86.679688 190.945312 86.679688 182.191406 L 86.679688 181.558594 C 86.679688 162.914062 86.679688 144.269531 86.679688 125.625 C 100.097656 124.011719 105.425781 136.761719 102.683594 163.878906 C 111.636719 150.796875 114.628906 132.714844 100.113281 118.222656 C 97.8125 115.921875 95.390625 113.683594 93.183594 111.402344 C 89.875 107.988281 85.738281 99.789062 84.828125 99.113281 Z M 84.828125 99.113281 " clip-rule="evenodd"/></clipPath><linearGradient x1="209.44381" gradientTransform="matrix(0.553009, 0, 0, 0.554081, 29.592713, 98.225098)" y1="110.564603" x2="-0.492001" gradientUnits="userSpaceOnUse" y2="225.130083" id="6210d16e91"><stop stop-opacity="1" stop-color="rgb(0.378418%, 59.7229%, 85.163879%)" offset="0"/><stop stop-opacity="1" stop-color="rgb(0.628662%, 59.805298%, 84.941101%)" offset="0.00390625"/><stop stop-opacity="1" stop-color="rgb(0.880432%, 59.887695%, 84.718323%)" offset="0.0078125"/><stop stop-opacity="1" stop-color="rgb(1.132202%, 59.970093%, 84.495544%)" offset="0.0117187"/><stop stop-opacity="1" stop-color="rgb(1.383972%, 60.05249%, 84.272766%)" offset="0.015625"/><stop stop-opacity="1" stop-color="rgb(1.634216%, 60.134888%, 84.049988%)" offset="0.0195312"/><stop stop-opacity="1" stop-color="rgb(1.885986%, 60.217285%, 83.827209%)" offset="0.0234375"/><stop stop-opacity="1" stop-color="rgb(2.137756%, 60.299683%, 83.604431%)" offset="0.0273437"/><stop stop-opacity="1" stop-color="rgb(2.389526%, 60.38208%, 83.381653%)" offset="0.03125"/><stop stop-opacity="1" stop-color="rgb(2.639771%, 60.464478%, 83.158875%)" offset="0.0351562"/><stop stop-opacity="1" stop-color="rgb(2.891541%, 60.546875%, 82.936096%)" offset="0.0390625"/><stop stop-opacity="1" stop-color="rgb(3.141785%, 60.629272%, 82.713318%)" offset="0.0429687"/><stop stop-opacity="1" stop-color="rgb(3.393555%, 60.71167%, 82.49054%)" offset="0.046875"/><stop stop-opacity="1" stop-color="rgb(3.645325%, 60.794067%, 82.267761%)" offset="0.0507812"/><stop stop-opacity="1" stop-color="rgb(3.897095%, 60.876465%, 82.044983%)" offset="0.0546875"/><stop stop-opacity="1" stop-color="rgb(4.147339%, 60.958862%, 81.822205%)" offset="0.0585937"/><stop stop-opacity="1" stop-color="rgb(4.399109%, 61.04126%, 81.599426%)" offset="0.0625"/><stop stop-opacity="1" stop-color="rgb(4.650879%, 61.123657%, 81.376648%)" offset="0.0664062"/><stop stop-opacity="1" stop-color="rgb(4.902649%, 61.206055%, 81.15387%)" offset="0.0703125"/><stop stop-opacity="1" stop-color="rgb(5.152893%, 61.288452%, 80.931091%)" offset="0.0742188"/><stop stop-opacity="1" stop-color="rgb(5.404663%, 61.37085%, 80.708313%)" offset="0.078125"/><stop stop-opacity="1" stop-color="rgb(5.656433%, 61.453247%, 80.485535%)" offset="0.0820312"/><stop stop-opacity="1" stop-color="rgb(5.908203%, 61.535645%, 80.262756%)" offset="0.0859375"/><stop stop-opacity="1" stop-color="rgb(6.158447%, 61.618042%, 80.039978%)" offset="0.0898437"/><stop stop-opacity="1" stop-color="rgb(6.410217%, 61.700439%, 79.8172%)" offset="0.09375"/><stop stop-opacity="1" stop-color="rgb(6.660461%, 61.782837%, 79.594421%)" offset="0.0976562"/><stop stop-opacity="1" stop-color="rgb(6.912231%, 61.865234%, 79.373169%)" offset="0.101562"/><stop stop-opacity="1" stop-color="rgb(7.164001%, 61.947632%, 79.150391%)" offset="0.105469"/><stop stop-opacity="1" stop-color="rgb(7.415771%, 62.030029%, 78.927612%)" offset="0.109375"/><stop stop-opacity="1" stop-color="rgb(7.666016%, 62.112427%, 78.704834%)" offset="0.113281"/><stop stop-opacity="1" stop-color="rgb(7.917786%, 62.194824%, 78.482056%)" offset="0.117187"/><stop stop-opacity="1" stop-color="rgb(8.169556%, 62.277222%, 78.259277%)" offset="0.121094"/><stop stop-opacity="1" stop-color="rgb(8.421326%, 62.359619%, 78.036499%)" offset="0.125"/><stop stop-opacity="1" stop-color="rgb(8.67157%, 62.442017%, 77.813721%)" offset="0.128906"/><stop stop-opacity="1" stop-color="rgb(8.92334%, 62.524414%, 77.590942%)" offset="0.132812"/><stop stop-opacity="1" stop-color="rgb(9.17511%, 62.606812%, 77.368164%)" offset="0.136719"/><stop stop-opacity="1" stop-color="rgb(9.42688%, 62.689209%, 77.145386%)" offset="0.140625"/><stop stop-opacity="1" stop-color="rgb(9.677124%, 62.771606%, 76.922607%)" offset="0.144531"/><stop stop-opacity="1" stop-color="rgb(9.928894%, 62.854004%, 76.699829%)" offset="0.148437"/><stop stop-opacity="1" stop-color="rgb(10.179138%, 62.936401%, 76.477051%)" offset="0.152344"/><stop stop-opacity="1" stop-color="rgb(10.430908%, 63.018799%, 76.254272%)" offset="0.15625"/><stop stop-opacity="1" stop-color="rgb(10.682678%, 63.101196%, 76.031494%)" offset="0.160156"/><stop stop-opacity="1" stop-color="rgb(10.934448%, 63.183594%, 75.808716%)" offset="0.164062"/><stop stop-opacity="1" stop-color="rgb(11.184692%, 63.265991%, 75.585938%)" offset="0.167969"/><stop stop-opacity="1" stop-color="rgb(11.436462%, 63.348389%, 75.363159%)" offset="0.171875"/><stop stop-opacity="1" stop-color="rgb(11.688232%, 63.430786%, 75.140381%)" offset="0.175781"/><stop stop-opacity="1" stop-color="rgb(11.940002%, 63.513184%, 74.917603%)" offset="0.179687"/><stop stop-opacity="1" stop-color="rgb(12.190247%, 63.595581%, 74.694824%)" offset="0.183594"/><stop stop-opacity="1" stop-color="rgb(12.442017%, 63.677979%, 74.472046%)" offset="0.1875"/><stop stop-opacity="1" stop-color="rgb(12.693787%, 63.760376%, 74.249268%)" offset="0.191406"/><stop stop-opacity="1" stop-color="rgb(12.945557%, 63.842773%, 74.026489%)" offset="0.195312"/><stop stop-opacity="1" stop-color="rgb(13.195801%, 63.925171%, 73.803711%)" offset="0.199219"/><stop stop-opacity="1" stop-color="rgb(13.447571%, 64.007568%, 73.580933%)" offset="0.203125"/><stop stop-opacity="1" stop-color="rgb(13.697815%, 64.089966%, 73.358154%)" offset="0.207031"/><stop stop-opacity="1" stop-color="rgb(13.949585%, 64.172363%, 73.135376%)" offset="0.210938"/><stop stop-opacity="1" stop-color="rgb(14.201355%, 64.254761%, 72.912598%)" offset="0.214844"/><stop stop-opacity="1" stop-color="rgb(14.453125%, 64.337158%, 72.689819%)" offset="0.21875"/><stop stop-opacity="1" stop-color="rgb(14.703369%, 64.419556%, 72.467041%)" offset="0.222656"/><stop stop-opacity="1" stop-color="rgb(14.955139%, 64.501953%, 72.245789%)" offset="0.226562"/><stop stop-opacity="1" stop-color="rgb(15.206909%, 64.584351%, 72.02301%)" offset="0.230469"/><stop stop-opacity="1" stop-color="rgb(15.458679%, 64.666748%, 71.800232%)" offset="0.234375"/><stop stop-opacity="1" stop-color="rgb(15.708923%, 64.749146%, 71.577454%)" offset="0.238281"/><stop stop-opacity="1" stop-color="rgb(15.960693%, 64.831543%, 71.354675%)" offset="0.242187"/><stop stop-opacity="1" stop-color="rgb(16.212463%, 64.91394%, 71.131897%)" offset="0.246094"/><stop stop-opacity="1" stop-color="rgb(16.464233%, 64.996338%, 70.909119%)" offset="0.25"/><stop stop-opacity="1" stop-color="rgb(16.714478%, 65.078735%, 70.68634%)" offset="0.253906"/><stop stop-opacity="1" stop-color="rgb(16.966248%, 65.161133%, 70.463562%)" offset="0.257812"/><stop stop-opacity="1" stop-color="rgb(17.216492%, 65.24353%, 70.240784%)" offset="0.261719"/><stop stop-opacity="1" stop-color="rgb(17.468262%, 65.325928%, 70.018005%)" offset="0.265625"/><stop stop-opacity="1" stop-color="rgb(17.720032%, 65.408325%, 69.795227%)" offset="0.269531"/><stop stop-opacity="1" stop-color="rgb(17.971802%, 65.490723%, 69.572449%)" offset="0.273437"/><stop stop-opacity="1" stop-color="rgb(18.222046%, 65.57312%, 69.34967%)" offset="0.277344"/><stop stop-opacity="1" stop-color="rgb(18.473816%, 65.655518%, 69.126892%)" offset="0.28125"/><stop stop-opacity="1" stop-color="rgb(18.725586%, 65.736389%, 68.904114%)" offset="0.285156"/><stop stop-opacity="1" stop-color="rgb(18.977356%, 65.818787%, 68.681335%)" offset="0.289062"/><stop stop-opacity="1" stop-color="rgb(19.2276%, 65.901184%, 68.458557%)" offset="0.292969"/><stop stop-opacity="1" stop-color="rgb(19.47937%, 65.983582%, 68.235779%)" offset="0.296875"/><stop stop-opacity="1" stop-color="rgb(19.73114%, 66.065979%, 68.013%)" offset="0.300781"/><stop stop-opacity="1" stop-color="rgb(19.98291%, 66.148376%, 67.790222%)" offset="0.304688"/><stop stop-opacity="1" stop-color="rgb(20.233154%, 66.230774%, 67.567444%)" offset="0.308594"/><stop stop-opacity="1" stop-color="rgb(20.484924%, 66.313171%, 67.344666%)" offset="0.3125"/><stop stop-opacity="1" stop-color="rgb(20.735168%, 66.395569%, 67.121887%)" offset="0.316406"/><stop stop-opacity="1" stop-color="rgb(20.986938%, 66.477966%, 66.899109%)" offset="0.320312"/><stop stop-opacity="1" stop-color="rgb(21.238708%, 66.560364%, 66.676331%)" offset="0.324219"/><stop stop-opacity="1" stop-color="rgb(21.490479%, 66.642761%, 66.453552%)" offset="0.328125"/><stop stop-opacity="1" stop-color="rgb(21.740723%, 66.725159%, 66.230774%)" offset="0.332031"/><stop stop-opacity="1" stop-color="rgb(21.992493%, 66.807556%, 66.007996%)" offset="0.335937"/><stop stop-opacity="1" stop-color="rgb(22.244263%, 66.889954%, 65.785217%)" offset="0.339844"/><stop stop-opacity="1" stop-color="rgb(22.496033%, 66.972351%, 65.562439%)" offset="0.34375"/><stop stop-opacity="1" stop-color="rgb(22.746277%, 67.054749%, 65.339661%)" offset="0.347656"/><stop stop-opacity="1" stop-color="rgb(22.998047%, 67.137146%, 65.118408%)" offset="0.351562"/><stop stop-opacity="1" stop-color="rgb(23.249817%, 67.219543%, 64.89563%)" offset="0.355469"/><stop stop-opacity="1" stop-color="rgb(23.501587%, 67.301941%, 64.672852%)" offset="0.359375"/><stop stop-opacity="1" stop-color="rgb(23.751831%, 67.384338%, 64.450073%)" offset="0.363281"/><stop stop-opacity="1" stop-color="rgb(24.003601%, 67.466736%, 64.227295%)" offset="0.367187"/><stop stop-opacity="1" stop-color="rgb(24.253845%, 67.549133%, 64.004517%)" offset="0.371094"/><stop stop-opacity="1" stop-color="rgb(24.505615%, 67.631531%, 63.781738%)" offset="0.375"/><stop stop-opacity="1" stop-color="rgb(24.757385%, 67.713928%, 63.55896%)" offset="0.378906"/><stop stop-opacity="1" stop-color="rgb(25.009155%, 67.796326%, 63.336182%)" offset="0.382812"/><stop stop-opacity="1" stop-color="rgb(25.259399%, 67.878723%, 63.113403%)" offset="0.386719"/><stop stop-opacity="1" stop-color="rgb(25.511169%, 67.961121%, 62.890625%)" offset="0.390625"/><stop stop-opacity="1" stop-color="rgb(25.762939%, 68.043518%, 62.667847%)" offset="0.394531"/><stop stop-opacity="1" stop-color="rgb(26.014709%, 68.125916%, 62.445068%)" offset="0.398437"/><stop stop-opacity="1" stop-color="rgb(26.264954%, 68.208313%, 62.22229%)" offset="0.402344"/><stop stop-opacity="1" stop-color="rgb(26.516724%, 68.29071%, 61.999512%)" offset="0.40625"/><stop stop-opacity="1" stop-color="rgb(26.768494%, 68.373108%, 61.776733%)" offset="0.410156"/><stop stop-opacity="1" stop-color="rgb(27.020264%, 68.455505%, 61.553955%)" offset="0.414062"/><stop stop-opacity="1" stop-color="rgb(27.270508%, 68.537903%, 61.331177%)" offset="0.417969"/><stop stop-opacity="1" stop-color="rgb(27.522278%, 68.6203%, 61.108398%)" offset="0.421875"/><stop stop-opacity="1" stop-color="rgb(27.772522%, 68.702698%, 60.88562%)" offset="0.425781"/><stop stop-opacity="1" stop-color="rgb(28.024292%, 68.785095%, 60.662842%)" offset="0.429687"/><stop stop-opacity="1" stop-color="rgb(28.276062%, 68.867493%, 60.440063%)" offset="0.433594"/><stop stop-opacity="1" stop-color="rgb(28.527832%, 68.94989%, 60.217285%)" offset="0.4375"/><stop stop-opacity="1" stop-color="rgb(28.778076%, 69.032288%, 59.994507%)" offset="0.441406"/><stop stop-opacity="1" stop-color="rgb(29.029846%, 69.114685%, 59.771729%)" offset="0.445312"/><stop stop-opacity="1" stop-color="rgb(29.281616%, 69.197083%, 59.54895%)" offset="0.449219"/><stop stop-opacity="1" stop-color="rgb(29.533386%, 69.27948%, 59.326172%)" offset="0.453125"/><stop stop-opacity="1" stop-color="rgb(29.78363%, 69.361877%, 59.103394%)" offset="0.457031"/><stop stop-opacity="1" stop-color="rgb(30.0354%, 69.444275%, 58.880615%)" offset="0.460937"/><stop stop-opacity="1" stop-color="rgb(30.28717%, 69.526672%, 58.657837%)" offset="0.464844"/><stop stop-opacity="1" stop-color="rgb(30.53894%, 69.60907%, 58.435059%)" offset="0.46875"/><stop stop-opacity="1" stop-color="rgb(30.789185%, 69.691467%, 58.21228%)" offset="0.472656"/><stop stop-opacity="1" stop-color="rgb(31.040955%, 69.773865%, 57.991028%)" offset="0.476562"/><stop stop-opacity="1" stop-color="rgb(31.291199%, 69.856262%, 57.76825%)" offset="0.480469"/><stop stop-opacity="1" stop-color="rgb(31.542969%, 69.93866%, 57.545471%)" offset="0.484375"/><stop stop-opacity="1" stop-color="rgb(31.794739%, 70.021057%, 57.322693%)" offset="0.488281"/><stop stop-opacity="1" stop-color="rgb(32.046509%, 70.103455%, 57.099915%)" offset="0.492187"/><stop stop-opacity="1" stop-color="rgb(32.296753%, 70.185852%, 56.877136%)" offset="0.496094"/><stop stop-opacity="1" stop-color="rgb(32.548523%, 70.26825%, 56.654358%)" offset="0.5"/><stop stop-opacity="1" stop-color="rgb(32.800293%, 70.350647%, 56.43158%)" offset="0.503906"/><stop stop-opacity="1" stop-color="rgb(33.052063%, 70.433044%, 56.208801%)" offset="0.507812"/><stop stop-opacity="1" stop-color="rgb(33.302307%, 70.515442%, 55.986023%)" offset="0.511719"/><stop stop-opacity="1" stop-color="rgb(33.554077%, 70.597839%, 55.763245%)" offset="0.515625"/><stop stop-opacity="1" stop-color="rgb(33.805847%, 70.680237%, 55.540466%)" offset="0.519531"/><stop stop-opacity="1" stop-color="rgb(34.057617%, 70.762634%, 55.317688%)" offset="0.523438"/><stop stop-opacity="1" stop-color="rgb(34.307861%, 70.845032%, 55.09491%)" offset="0.527344"/><stop stop-opacity="1" stop-color="rgb(34.559631%, 70.927429%, 54.872131%)" offset="0.53125"/><stop stop-opacity="1" stop-color="rgb(34.809875%, 71.009827%, 54.649353%)" offset="0.535156"/><stop stop-opacity="1" stop-color="rgb(35.061646%, 71.092224%, 54.426575%)" offset="0.539063"/><stop stop-opacity="1" stop-color="rgb(35.313416%, 71.174622%, 54.203796%)" offset="0.542969"/><stop stop-opacity="1" stop-color="rgb(35.565186%, 71.257019%, 53.981018%)" offset="0.546875"/><stop stop-opacity="1" stop-color="rgb(35.81543%, 71.339417%, 53.75824%)" offset="0.550781"/><stop stop-opacity="1" stop-color="rgb(36.0672%, 71.421814%, 53.535461%)" offset="0.554688"/><stop stop-opacity="1" stop-color="rgb(36.31897%, 71.504211%, 53.312683%)" offset="0.558594"/><stop stop-opacity="1" stop-color="rgb(36.57074%, 71.586609%, 53.089905%)" offset="0.5625"/><stop stop-opacity="1" stop-color="rgb(36.820984%, 71.669006%, 52.867126%)" offset="0.566406"/><stop stop-opacity="1" stop-color="rgb(37.072754%, 71.751404%, 52.644348%)" offset="0.570313"/><stop stop-opacity="1" stop-color="rgb(37.324524%, 71.833801%, 52.42157%)" offset="0.574219"/><stop stop-opacity="1" stop-color="rgb(37.576294%, 71.916199%, 52.198792%)" offset="0.578125"/><stop stop-opacity="1" stop-color="rgb(37.826538%, 71.998596%, 51.976013%)" offset="0.582031"/><stop stop-opacity="1" stop-color="rgb(38.078308%, 72.080994%, 51.753235%)" offset="0.585937"/><stop stop-opacity="1" stop-color="rgb(38.328552%, 72.163391%, 51.530457%)" offset="0.589844"/><stop stop-opacity="1" stop-color="rgb(38.580322%, 72.245789%, 51.307678%)" offset="0.59375"/><stop stop-opacity="1" stop-color="rgb(38.832092%, 72.328186%, 51.0849%)" offset="0.597656"/><stop stop-opacity="1" stop-color="rgb(39.083862%, 72.410583%, 50.863647%)" offset="0.601562"/><stop stop-opacity="1" stop-color="rgb(39.334106%, 72.492981%, 50.640869%)" offset="0.605469"/><stop stop-opacity="1" stop-color="rgb(39.585876%, 72.575378%, 50.418091%)" offset="0.609375"/><stop stop-opacity="1" stop-color="rgb(39.837646%, 72.657776%, 50.195312%)" offset="0.613281"/><stop stop-opacity="1" stop-color="rgb(40.089417%, 72.740173%, 49.972534%)" offset="0.617187"/><stop stop-opacity="1" stop-color="rgb(40.339661%, 72.822571%, 49.749756%)" offset="0.621094"/><stop stop-opacity="1" stop-color="rgb(40.591431%, 72.904968%, 49.526978%)" offset="0.625"/><stop stop-opacity="1" stop-color="rgb(40.843201%, 72.98584%, 49.304199%)" offset="0.628906"/><stop stop-opacity="1" stop-color="rgb(41.094971%, 73.068237%, 49.081421%)" offset="0.632812"/><stop stop-opacity="1" stop-color="rgb(41.345215%, 73.150635%, 48.858643%)" offset="0.636719"/><stop stop-opacity="1" stop-color="rgb(41.596985%, 73.233032%, 48.635864%)" offset="0.640625"/><stop stop-opacity="1" stop-color="rgb(41.847229%, 73.31543%, 48.413086%)" offset="0.644531"/><stop stop-opacity="1" stop-color="rgb(42.098999%, 73.397827%, 48.190308%)" offset="0.648437"/><stop stop-opacity="1" stop-color="rgb(42.350769%, 73.480225%, 47.967529%)" offset="0.652344"/><stop stop-opacity="1" stop-color="rgb(42.602539%, 73.562622%, 47.744751%)" offset="0.65625"/><stop stop-opacity="1" stop-color="rgb(42.852783%, 73.64502%, 47.521973%)" offset="0.660156"/><stop stop-opacity="1" stop-color="rgb(43.104553%, 73.727417%, 47.299194%)" offset="0.664062"/><stop stop-opacity="1" stop-color="rgb(43.356323%, 73.809814%, 47.076416%)" offset="0.667969"/><stop stop-opacity="1" stop-color="rgb(43.608093%, 73.892212%, 46.853638%)" offset="0.671875"/><stop stop-opacity="1" stop-color="rgb(43.858337%, 73.974609%, 46.630859%)" offset="0.675781"/><stop stop-opacity="1" stop-color="rgb(44.110107%, 74.057007%, 46.408081%)" offset="0.679688"/><stop stop-opacity="1" stop-color="rgb(44.361877%, 74.139404%, 46.185303%)" offset="0.683594"/><stop stop-opacity="1" stop-color="rgb(44.613647%, 74.221802%, 45.962524%)" offset="0.6875"/><stop stop-opacity="1" stop-color="rgb(44.863892%, 74.304199%, 45.739746%)" offset="0.691406"/><stop stop-opacity="1" stop-color="rgb(45.115662%, 74.386597%, 45.516968%)" offset="0.695312"/><stop stop-opacity="1" stop-color="rgb(45.365906%, 74.468994%, 45.294189%)" offset="0.699219"/><stop stop-opacity="1" stop-color="rgb(45.617676%, 74.551392%, 45.071411%)" offset="0.703125"/><stop stop-opacity="1" stop-color="rgb(45.869446%, 74.633789%, 44.848633%)" offset="0.707031"/><stop stop-opacity="1" stop-color="rgb(46.121216%, 74.716187%, 44.625854%)" offset="0.710938"/><stop stop-opacity="1" stop-color="rgb(46.37146%, 74.798584%, 44.403076%)" offset="0.714844"/><stop stop-opacity="1" stop-color="rgb(46.62323%, 74.880981%, 44.180298%)" offset="0.71875"/><stop stop-opacity="1" stop-color="rgb(46.875%, 74.963379%, 43.95752%)" offset="0.722656"/><stop stop-opacity="1" stop-color="rgb(47.12677%, 75.045776%, 43.736267%)" offset="0.726563"/><stop stop-opacity="1" stop-color="rgb(47.377014%, 75.128174%, 43.513489%)" offset="0.730469"/><stop stop-opacity="1" stop-color="rgb(47.628784%, 75.210571%, 43.29071%)" offset="0.734375"/><stop stop-opacity="1" stop-color="rgb(47.880554%, 75.292969%, 43.067932%)" offset="0.738281"/><stop stop-opacity="1" stop-color="rgb(48.132324%, 75.375366%, 42.845154%)" offset="0.742188"/><stop stop-opacity="1" stop-color="rgb(48.382568%, 75.457764%, 42.622375%)" offset="0.746094"/><stop stop-opacity="1" stop-color="rgb(48.634338%, 75.540161%, 42.399597%)" offset="0.75"/><stop stop-opacity="1" stop-color="rgb(48.884583%, 75.622559%, 42.176819%)" offset="0.753906"/><stop stop-opacity="1" stop-color="rgb(49.136353%, 75.704956%, 41.954041%)" offset="0.757812"/><stop stop-opacity="1" stop-color="rgb(49.388123%, 75.787354%, 41.731262%)" offset="0.761719"/><stop stop-opacity="1" stop-color="rgb(49.639893%, 75.869751%, 41.508484%)" offset="0.765625"/><stop stop-opacity="1" stop-color="rgb(49.890137%, 75.952148%, 41.285706%)" offset="0.769531"/><stop stop-opacity="1" stop-color="rgb(50.141907%, 76.034546%, 41.062927%)" offset="0.773437"/><stop stop-opacity="1" stop-color="rgb(50.393677%, 76.116943%, 40.840149%)" offset="0.777344"/><stop stop-opacity="1" stop-color="rgb(50.645447%, 76.199341%, 40.617371%)" offset="0.78125"/><stop stop-opacity="1" stop-color="rgb(50.895691%, 76.281738%, 40.394592%)" offset="0.785156"/><stop stop-opacity="1" stop-color="rgb(51.147461%, 76.364136%, 40.171814%)" offset="0.789062"/><stop stop-opacity="1" stop-color="rgb(51.399231%, 76.446533%, 39.949036%)" offset="0.792969"/><stop stop-opacity="1" stop-color="rgb(51.651001%, 76.528931%, 39.726257%)" offset="0.796875"/><stop stop-opacity="1" stop-color="rgb(51.901245%, 76.611328%, 39.503479%)" offset="0.800781"/><stop stop-opacity="1" stop-color="rgb(52.153015%, 76.693726%, 39.280701%)" offset="0.804688"/><stop stop-opacity="1" stop-color="rgb(52.404785%, 76.776123%, 39.057922%)" offset="0.808594"/><stop stop-opacity="1" stop-color="rgb(52.656555%, 76.858521%, 38.835144%)" offset="0.8125"/><stop stop-opacity="1" stop-color="rgb(52.906799%, 76.940918%, 38.612366%)" offset="0.816406"/><stop stop-opacity="1" stop-color="rgb(53.158569%, 77.023315%, 38.389587%)" offset="0.820312"/><stop stop-opacity="1" stop-color="rgb(53.408813%, 77.105713%, 38.166809%)" offset="0.824219"/><stop stop-opacity="1" stop-color="rgb(53.660583%, 77.18811%, 37.944031%)" offset="0.828125"/><stop stop-opacity="1" stop-color="rgb(53.912354%, 77.270508%, 37.721252%)" offset="0.832031"/><stop stop-opacity="1" stop-color="rgb(54.164124%, 77.352905%, 37.498474%)" offset="0.835938"/><stop stop-opacity="1" stop-color="rgb(54.414368%, 77.435303%, 37.275696%)" offset="0.839844"/><stop stop-opacity="1" stop-color="rgb(54.666138%, 77.5177%, 37.052917%)" offset="0.84375"/><stop stop-opacity="1" stop-color="rgb(54.917908%, 77.600098%, 36.830139%)" offset="0.847656"/><stop stop-opacity="1" stop-color="rgb(55.169678%, 77.682495%, 36.608887%)" offset="0.851563"/><stop stop-opacity="1" stop-color="rgb(55.419922%, 77.764893%, 36.386108%)" offset="0.855469"/><stop stop-opacity="1" stop-color="rgb(55.671692%, 77.84729%, 36.16333%)" offset="0.859375"/><stop stop-opacity="1" stop-color="rgb(55.923462%, 77.929688%, 35.940552%)" offset="0.863281"/><stop stop-opacity="1" stop-color="rgb(56.175232%, 78.012085%, 35.717773%)" offset="0.867188"/><stop stop-opacity="1" stop-color="rgb(56.425476%, 78.094482%, 35.494995%)" offset="0.871094"/><stop stop-opacity="1" stop-color="rgb(56.677246%, 78.17688%, 35.272217%)" offset="0.875"/><stop stop-opacity="1" stop-color="rgb(56.92749%, 78.259277%, 35.049438%)" offset="0.878906"/><stop stop-opacity="1" stop-color="rgb(57.17926%, 78.341675%, 34.82666%)" offset="0.882813"/><stop stop-opacity="1" stop-color="rgb(57.43103%, 78.424072%, 34.603882%)" offset="0.886719"/><stop stop-opacity="1" stop-color="rgb(57.6828%, 78.50647%, 34.381104%)" offset="0.890625"/><stop stop-opacity="1" stop-color="rgb(57.933044%, 78.588867%, 34.158325%)" offset="0.894531"/><stop stop-opacity="1" stop-color="rgb(58.184814%, 78.671265%, 33.935547%)" offset="0.898438"/><stop stop-opacity="1" stop-color="rgb(58.436584%, 78.753662%, 33.712769%)" offset="0.902344"/><stop stop-opacity="1" stop-color="rgb(58.688354%, 78.83606%, 33.48999%)" offset="0.90625"/><stop stop-opacity="1" stop-color="rgb(58.938599%, 78.918457%, 33.267212%)" offset="0.910156"/><stop stop-opacity="1" stop-color="rgb(59.190369%, 79.000854%, 33.044434%)" offset="0.914063"/><stop stop-opacity="1" stop-color="rgb(59.442139%, 79.083252%, 32.821655%)" offset="0.917969"/><stop stop-opacity="1" stop-color="rgb(59.693909%, 79.165649%, 32.598877%)" offset="0.921875"/><stop stop-opacity="1" stop-color="rgb(59.944153%, 79.248047%, 32.376099%)" offset="0.925781"/><stop stop-opacity="1" stop-color="rgb(60.195923%, 79.330444%, 32.15332%)" offset="0.929687"/><stop stop-opacity="1" stop-color="rgb(60.446167%, 79.412842%, 31.930542%)" offset="0.933594"/><stop stop-opacity="1" stop-color="rgb(60.697937%, 79.495239%, 31.707764%)" offset="0.9375"/><stop stop-opacity="1" stop-color="rgb(60.949707%, 79.577637%, 31.484985%)" offset="0.941406"/><stop stop-opacity="1" stop-color="rgb(61.201477%, 79.660034%, 31.262207%)" offset="0.945312"/><stop stop-opacity="1" stop-color="rgb(61.451721%, 79.742432%, 31.039429%)" offset="0.949219"/><stop stop-opacity="1" stop-color="rgb(61.703491%, 79.824829%, 30.81665%)" offset="0.953125"/><stop stop-opacity="1" stop-color="rgb(61.955261%, 79.907227%, 30.593872%)" offset="0.957031"/><stop stop-opacity="1" stop-color="rgb(62.207031%, 79.989624%, 30.371094%)" offset="0.960937"/><stop stop-opacity="1" stop-color="rgb(62.457275%, 80.070496%, 30.148315%)" offset="0.964844"/><stop stop-opacity="1" stop-color="rgb(62.709045%, 80.152893%, 29.925537%)" offset="0.96875"/><stop stop-opacity="1" stop-color="rgb(62.960815%, 80.235291%, 29.702759%)" offset="0.972656"/><stop stop-opacity="1" stop-color="rgb(63.212585%, 80.317688%, 29.481506%)" offset="0.976562"/><stop stop-opacity="1" stop-color="rgb(63.46283%, 80.400085%, 29.258728%)" offset="0.980469"/><stop stop-opacity="1" stop-color="rgb(63.7146%, 80.482483%, 29.03595%)" offset="0.984375"/><stop stop-opacity="1" stop-color="rgb(63.964844%, 80.56488%, 28.813171%)" offset="0.988281"/><stop stop-opacity="1" stop-color="rgb(64.216614%, 80.647278%, 28.590393%)" offset="0.992188"/><stop stop-opacity="1" stop-color="rgb(64.468384%, 80.729675%, 28.367615%)" offset="0.996094"/><stop stop-opacity="1" stop-color="rgb(64.720154%, 80.812073%, 28.144836%)" offset="1"/></linearGradient></defs><rect x="-37.5" width="450" fill="#ffffff" y="-37.499999" height="449.999989" fill-opacity="1"/><rect x="-37.5" width="450" fill="#001822" y="-37.499999" height="449.999989" fill-opacity="1"/><g clip-path="url(#ac588fb79a)"><g clip-path="url(#39ac88200f)"><path fill="url(#6210d16e91)" d="M 29.597656 98.226562 L 29.597656 223.476562 L 112.050781 223.476562 L 112.050781 98.226562 Z M 29.597656 98.226562 " fill-rule="nonzero"/></g></g><g fill="#a8cf45" fill-opacity="1"><g transform="translate(127.426189, 168.329814)"><g><path d="M 11.390625 -15.90625 C 11.722656 -15.90625 11.972656 -15.894531 12.140625 -15.875 C 12.304688 -15.851562 12.492188 -15.785156 12.703125 -15.671875 C 12.910156 -15.554688 13.054688 -15.359375 13.140625 -15.078125 C 13.234375 -14.804688 13.28125 -14.4375 13.28125 -13.96875 C 13.28125 -13.507812 13.234375 -13.140625 13.140625 -12.859375 C 13.054688 -12.585938 12.90625 -12.394531 12.6875 -12.28125 C 12.476562 -12.175781 12.289062 -12.113281 12.125 -12.09375 C 11.957031 -12.070312 11.695312 -12.0625 11.34375 -12.0625 L 4.703125 -12.0625 L 4.703125 -9.875 L 8.984375 -9.875 C 9.328125 -9.875 9.582031 -9.863281 9.75 -9.84375 C 9.914062 -9.820312 10.109375 -9.753906 10.328125 -9.640625 C 10.703125 -9.421875 10.890625 -8.847656 10.890625 -7.921875 C 10.890625 -6.910156 10.613281 -6.3125 10.0625 -6.125 C 9.832031 -6.050781 9.46875 -6.015625 8.96875 -6.015625 L 4.703125 -6.015625 L 4.703125 -1.90625 C 4.703125 -1.5625 4.691406 -1.304688 4.671875 -1.140625 C 4.648438 -0.984375 4.582031 -0.800781 4.46875 -0.59375 C 4.269531 -0.195312 3.707031 0 2.78125 0 C 1.769531 0 1.175781 -0.273438 1 -0.828125 C 0.914062 -1.054688 0.875 -1.425781 0.875 -1.9375 L 0.875 -14 C 0.875 -14.738281 1.007812 -15.238281 1.28125 -15.5 C 1.550781 -15.769531 2.070312 -15.90625 2.84375 -15.90625 Z M 11.390625 -15.90625 "/></g></g></g><g fill="#a8cf45" fill-opacity="1"><g transform="translate(146.482042, 168.329814)"><g><path d="M 13.046875 -2.6875 C 13.265625 -2.164062 13.375 -1.789062 13.375 -1.5625 C 13.375 -1.007812 12.925781 -0.546875 12.03125 -0.171875 C 11.5625 0.0234375 11.1875 0.125 10.90625 0.125 C 10.625 0.125 10.390625 0.0546875 10.203125 -0.078125 C 10.023438 -0.210938 9.894531 -0.351562 9.8125 -0.5 C 9.664062 -0.769531 9.097656 -2.078125 8.109375 -4.421875 L 7.4375 -4.390625 L 4.703125 -4.390625 L 4.703125 -1.9375 C 4.703125 -1.601562 4.691406 -1.351562 4.671875 -1.1875 C 4.648438 -1.019531 4.582031 -0.828125 4.46875 -0.609375 C 4.269531 -0.210938 3.707031 -0.015625 2.78125 -0.015625 C 1.769531 -0.015625 1.175781 -0.285156 1 -0.828125 C 0.914062 -1.066406 0.875 -1.441406 0.875 -1.953125 L 0.875 -14 C 0.875 -14.332031 0.882812 -14.582031 0.90625 -14.75 C 0.925781 -14.914062 0.992188 -15.109375 1.109375 -15.328125 C 1.304688 -15.710938 1.867188 -15.90625 2.796875 -15.90625 L 7.484375 -15.90625 C 8.753906 -15.90625 9.992188 -15.441406 11.203125 -14.515625 C 11.773438 -14.066406 12.25 -13.457031 12.625 -12.6875 C 13.007812 -11.925781 13.203125 -11.078125 13.203125 -10.140625 C 13.203125 -8.503906 12.65625 -7.15625 11.5625 -6.09375 C 11.882812 -5.332031 12.378906 -4.195312 13.046875 -2.6875 Z M 4.703125 -8.21875 L 7.484375 -8.21875 C 7.898438 -8.21875 8.316406 -8.378906 8.734375 -8.703125 C 9.160156 -9.023438 9.375 -9.503906 9.375 -10.140625 C 9.375 -10.773438 9.160156 -11.253906 8.734375 -11.578125 C 8.316406 -11.898438 7.882812 -12.0625 7.4375 -12.0625 L 4.703125 -12.0625 Z M 4.703125 -8.21875 "/></g></g></g><g fill="#a8cf45" fill-opacity="1"><g transform="translate(165.407674, 168.329814)"><g><path d="M 4.703125 -3.84375 L 11.390625 -3.84375 C 11.722656 -3.84375 11.972656 -3.832031 12.140625 -3.8125 C 12.304688 -3.789062 12.5 -3.722656 12.71875 -3.609375 C 13.101562 -3.398438 13.296875 -2.832031 13.296875 -1.90625 C 13.296875 -0.894531 13.03125 -0.300781 12.5 -0.125 C 12.25 -0.0390625 11.875 0 11.375 0 L 2.78125 0 C 1.769531 0 1.175781 -0.273438 1 -0.828125 C 0.914062 -1.054688 0.875 -1.425781 0.875 -1.9375 L 0.875 -14 C 0.875 -14.738281 1.007812 -15.238281 1.28125 -15.5 C 1.550781 -15.769531 2.070312 -15.90625 2.84375 -15.90625 L 11.390625 -15.90625 C 11.722656 -15.90625 11.972656 -15.894531 12.140625 -15.875 C 12.304688 -15.851562 12.5 -15.785156 12.71875 -15.671875 C 13.101562 -15.460938 13.296875 -14.898438 13.296875 -13.984375 C 13.296875 -12.960938 13.03125 -12.367188 12.5 -12.203125 C 12.25 -12.109375 11.875 -12.0625 11.375 -12.0625 L 4.703125 -12.0625 L 4.703125 -9.875 L 9 -9.875 C 9.332031 -9.875 9.582031 -9.863281 9.75 -9.84375 C 9.914062 -9.820312 10.109375 -9.753906 10.328125 -9.640625 C 10.722656 -9.429688 10.921875 -8.863281 10.921875 -7.9375 C 10.921875 -6.925781 10.644531 -6.332031 10.09375 -6.15625 C 9.84375 -6.070312 9.46875 -6.03125 8.96875 -6.03125 L 4.703125 -6.03125 Z M 4.703125 -3.84375 "/></g></g></g><g fill="#a8cf45" fill-opacity="1"><g transform="translate(184.485225, 168.329814)"><g><path d="M 4.703125 -3.84375 L 11.390625 -3.84375 C 11.722656 -3.84375 11.972656 -3.832031 12.140625 -3.8125 C 12.304688 -3.789062 12.5 -3.722656 12.71875 -3.609375 C 13.101562 -3.398438 13.296875 -2.832031 13.296875 -1.90625 C 13.296875 -0.894531 13.03125 -0.300781 12.5 -0.125 C 12.25 -0.0390625 11.875 0 11.375 0 L 2.78125 0 C 1.769531 0 1.175781 -0.273438 1 -0.828125 C 0.914062 -1.054688 0.875 -1.425781 0.875 -1.9375 L 0.875 -14 C 0.875 -14.738281 1.007812 -15.238281 1.28125 -15.5 C 1.550781 -15.769531 2.070312 -15.90625 2.84375 -15.90625 L 11.390625 -15.90625 C 11.722656 -15.90625 11.972656 -15.894531 12.140625 -15.875 C 12.304688 -15.851562 12.5 -15.785156 12.71875 -15.671875 C 13.101562 -15.460938 13.296875 -14.898438 13.296875 -13.984375 C 13.296875 -12.960938 13.03125 -12.367188 12.5 -12.203125 C 12.25 -12.109375 11.875 -12.0625 11.375 -12.0625 L 4.703125 -12.0625 L 4.703125 -9.875 L 9 -9.875 C 9.332031 -9.875 9.582031 -9.863281 9.75 -9.84375 C 9.914062 -9.820312 10.109375 -9.753906 10.328125 -9.640625 C 10.722656 -9.429688 10.921875 -8.863281 10.921875 -7.9375 C 10.921875 -6.925781 10.644531 -6.332031 10.09375 -6.15625 C 9.84375 -6.070312 9.46875 -6.03125 8.96875 -6.03125 L 4.703125 -6.03125 Z M 4.703125 -3.84375 "/></g></g></g><g fill="#a8cf45" fill-opacity="1"><g transform="translate(203.562777, 168.329814)"><g/></g></g><g fill="#a8cf45" fill-opacity="1"><g transform="translate(214.284608, 168.329814)"><g><path d="M 17.78125 -15.296875 C 17.894531 -15.078125 17.960938 -14.878906 17.984375 -14.703125 C 18.003906 -14.535156 18.015625 -14.285156 18.015625 -13.953125 L 18.015625 -1.90625 C 18.015625 -0.90625 17.738281 -0.320312 17.1875 -0.15625 C 16.914062 -0.0625 16.566406 -0.015625 16.140625 -0.015625 C 15.722656 -0.015625 15.390625 -0.0507812 15.140625 -0.125 C 14.898438 -0.195312 14.710938 -0.285156 14.578125 -0.390625 C 14.453125 -0.492188 14.351562 -0.640625 14.28125 -0.828125 C 14.207031 -1.066406 14.171875 -1.441406 14.171875 -1.953125 L 14.171875 -9.21875 C 13.804688 -8.769531 13.273438 -8.054688 12.578125 -7.078125 C 11.890625 -6.109375 11.453125 -5.5 11.265625 -5.25 C 11.078125 -5.007812 10.945312 -4.835938 10.875 -4.734375 C 10.800781 -4.640625 10.625 -4.507812 10.34375 -4.34375 C 10.0625 -4.1875 9.753906 -4.109375 9.421875 -4.109375 C 9.097656 -4.109375 8.800781 -4.179688 8.53125 -4.328125 C 8.269531 -4.484375 8.082031 -4.632812 7.96875 -4.78125 L 7.796875 -5.015625 C 7.503906 -5.378906 6.929688 -6.148438 6.078125 -7.328125 C 5.222656 -8.503906 4.757812 -9.132812 4.6875 -9.21875 L 4.6875 -1.90625 C 4.6875 -1.570312 4.675781 -1.320312 4.65625 -1.15625 C 4.632812 -0.988281 4.566406 -0.804688 4.453125 -0.609375 C 4.234375 -0.210938 3.664062 -0.015625 2.75 -0.015625 C 1.875 -0.015625 1.328125 -0.210938 1.109375 -0.609375 C 0.992188 -0.804688 0.925781 -0.992188 0.90625 -1.171875 C 0.882812 -1.347656 0.875 -1.609375 0.875 -1.953125 L 0.875 -14 C 0.875 -14.332031 0.882812 -14.582031 0.90625 -14.75 C 0.925781 -14.914062 0.992188 -15.109375 1.109375 -15.328125 C 1.328125 -15.703125 1.890625 -15.890625 2.796875 -15.890625 C 3.191406 -15.890625 3.53125 -15.84375 3.8125 -15.75 C 4.09375 -15.65625 4.273438 -15.554688 4.359375 -15.453125 L 4.5 -15.328125 L 9.421875 -8.859375 C 11.878906 -12.109375 13.519531 -14.253906 14.34375 -15.296875 C 14.59375 -15.691406 15.175781 -15.890625 16.09375 -15.890625 C 17.007812 -15.890625 17.570312 -15.691406 17.78125 -15.296875 Z M 17.78125 -15.296875 "/></g></g></g><g fill="#a8cf45" fill-opacity="1"><g transform="translate(238.397296, 168.329814)"><g><path d="M 11.265625 -15.3125 C 11.410156 -15.550781 11.617188 -15.710938 11.890625 -15.796875 C 12.171875 -15.890625 12.515625 -15.9375 12.921875 -15.9375 C 13.335938 -15.9375 13.664062 -15.898438 13.90625 -15.828125 C 14.15625 -15.753906 14.34375 -15.664062 14.46875 -15.5625 C 14.601562 -15.457031 14.703125 -15.304688 14.765625 -15.109375 C 14.847656 -14.859375 14.890625 -14.484375 14.890625 -13.984375 L 14.890625 -7.421875 C 14.890625 -5.515625 14.296875 -3.78125 13.109375 -2.21875 C 12.523438 -1.476562 11.773438 -0.878906 10.859375 -0.421875 C 9.953125 0.0351562 8.945312 0.265625 7.84375 0.265625 C 6.738281 0.265625 5.734375 0.0351562 4.828125 -0.421875 C 3.921875 -0.890625 3.1875 -1.5 2.625 -2.25 C 1.457031 -3.789062 0.875 -5.53125 0.875 -7.46875 L 0.875 -14 C 0.875 -14.34375 0.882812 -14.597656 0.90625 -14.765625 C 0.925781 -14.929688 0.992188 -15.125 1.109375 -15.34375 C 1.222656 -15.5625 1.414062 -15.710938 1.6875 -15.796875 C 1.96875 -15.890625 2.335938 -15.9375 2.796875 -15.9375 C 3.265625 -15.9375 3.632812 -15.890625 3.90625 -15.796875 C 4.175781 -15.710938 4.363281 -15.5625 4.46875 -15.34375 C 4.644531 -15.007812 4.734375 -14.554688 4.734375 -13.984375 L 4.734375 -7.46875 C 4.734375 -6.582031 4.945312 -5.742188 5.375 -4.953125 C 5.59375 -4.546875 5.921875 -4.21875 6.359375 -3.96875 C 6.796875 -3.726562 7.3125 -3.609375 7.90625 -3.609375 C 8.957031 -3.609375 9.742188 -4 10.265625 -4.78125 C 10.785156 -5.5625 11.046875 -6.460938 11.046875 -7.484375 L 11.046875 -14.125 C 11.046875 -14.6875 11.117188 -15.082031 11.265625 -15.3125 Z M 11.265625 -15.3125 "/></g></g></g><g fill="#a8cf45" fill-opacity="1"><g transform="translate(259.384729, 168.329814)"><g><path d="M 1.109375 -2.234375 C 0.734375 -2.703125 0.546875 -3.117188 0.546875 -3.484375 C 0.546875 -3.847656 0.851562 -4.335938 1.46875 -4.953125 C 1.832031 -5.296875 2.21875 -5.46875 2.625 -5.46875 C 3.03125 -5.46875 3.59375 -5.109375 4.3125 -4.390625 C 4.519531 -4.140625 4.8125 -3.898438 5.1875 -3.671875 C 5.5625 -3.453125 5.910156 -3.34375 6.234375 -3.34375 C 7.578125 -3.34375 8.25 -3.890625 8.25 -4.984375 C 8.25 -5.316406 8.0625 -5.59375 7.6875 -5.8125 C 7.320312 -6.039062 6.863281 -6.207031 6.3125 -6.3125 C 5.757812 -6.414062 5.164062 -6.578125 4.53125 -6.796875 C 3.894531 -7.023438 3.300781 -7.289062 2.75 -7.59375 C 2.207031 -7.894531 1.75 -8.375 1.375 -9.03125 C 1.007812 -9.695312 0.828125 -10.492188 0.828125 -11.421875 C 0.828125 -12.691406 1.300781 -13.800781 2.25 -14.75 C 3.195312 -15.695312 4.488281 -16.171875 6.125 -16.171875 C 6.988281 -16.171875 7.78125 -16.054688 8.5 -15.828125 C 9.21875 -15.609375 9.710938 -15.382812 9.984375 -15.15625 L 10.53125 -14.734375 C 10.976562 -14.316406 11.203125 -13.960938 11.203125 -13.671875 C 11.203125 -13.378906 11.023438 -12.984375 10.671875 -12.484375 C 10.179688 -11.753906 9.675781 -11.390625 9.15625 -11.390625 C 8.851562 -11.390625 8.476562 -11.535156 8.03125 -11.828125 C 7.988281 -11.859375 7.90625 -11.929688 7.78125 -12.046875 C 7.65625 -12.160156 7.539062 -12.253906 7.4375 -12.328125 C 7.132812 -12.515625 6.75 -12.609375 6.28125 -12.609375 C 5.8125 -12.609375 5.421875 -12.492188 5.109375 -12.265625 C 4.796875 -12.046875 4.640625 -11.738281 4.640625 -11.34375 C 4.640625 -10.945312 4.820312 -10.625 5.1875 -10.375 C 5.5625 -10.125 6.023438 -9.957031 6.578125 -9.875 C 7.128906 -9.789062 7.726562 -9.65625 8.375 -9.46875 C 9.03125 -9.289062 9.628906 -9.070312 10.171875 -8.8125 C 10.722656 -8.550781 11.179688 -8.097656 11.546875 -7.453125 C 11.921875 -6.804688 12.109375 -6.015625 12.109375 -5.078125 C 12.109375 -4.140625 11.921875 -3.3125 11.546875 -2.59375 C 11.171875 -1.875 10.675781 -1.320312 10.0625 -0.9375 C 8.894531 -0.164062 7.644531 0.21875 6.3125 0.21875 C 5.632812 0.21875 4.988281 0.132812 4.375 -0.03125 C 3.769531 -0.195312 3.28125 -0.40625 2.90625 -0.65625 C 2.144531 -1.113281 1.609375 -1.5625 1.296875 -2 Z M 1.109375 -2.234375 "/></g></g></g><g fill="#a8cf45" fill-opacity="1"><g transform="translate(277.268605, 168.329814)"><g><path d="M 0.875 -14 C 0.875 -14.332031 0.882812 -14.582031 0.90625 -14.75 C 0.925781 -14.914062 0.992188 -15.109375 1.109375 -15.328125 C 1.304688 -15.710938 1.867188 -15.90625 2.796875 -15.90625 C 3.804688 -15.90625 4.40625 -15.640625 4.59375 -15.109375 C 4.664062 -14.859375 4.703125 -14.484375 4.703125 -13.984375 L 4.703125 -1.90625 C 4.703125 -1.5625 4.691406 -1.304688 4.671875 -1.140625 C 4.648438 -0.984375 4.582031 -0.800781 4.46875 -0.59375 C 4.269531 -0.195312 3.707031 0 2.78125 0 C 1.769531 0 1.175781 -0.273438 1 -0.828125 C 0.914062 -1.054688 0.875 -1.425781 0.875 -1.9375 Z M 0.875 -14 "/></g></g></g><g fill="#a8cf45" fill-opacity="1"><g transform="translate(288.07724, 168.329814)"><g><path d="M 10.8125 -4.171875 L 11.203125 -4.453125 C 11.691406 -4.742188 12.035156 -4.890625 12.234375 -4.890625 C 12.679688 -4.890625 13.164062 -4.484375 13.6875 -3.671875 C 14.007812 -3.160156 14.171875 -2.753906 14.171875 -2.453125 C 14.171875 -2.148438 14.070312 -1.894531 13.875 -1.6875 C 13.6875 -1.488281 13.460938 -1.304688 13.203125 -1.140625 C 12.941406 -0.984375 12.691406 -0.832031 12.453125 -0.6875 C 12.210938 -0.550781 11.722656 -0.363281 10.984375 -0.125 C 10.242188 0.101562 9.53125 0.21875 8.84375 0.21875 C 8.15625 0.21875 7.457031 0.128906 6.75 -0.046875 C 6.050781 -0.234375 5.328125 -0.539062 4.578125 -0.96875 C 3.835938 -1.394531 3.171875 -1.914062 2.578125 -2.53125 C 1.984375 -3.144531 1.492188 -3.929688 1.109375 -4.890625 C 0.734375 -5.859375 0.546875 -6.90625 0.546875 -8.03125 C 0.546875 -9.15625 0.734375 -10.175781 1.109375 -11.09375 C 1.484375 -12.019531 1.960938 -12.78125 2.546875 -13.375 C 3.128906 -13.976562 3.800781 -14.484375 4.5625 -14.890625 C 5.976562 -15.671875 7.398438 -16.0625 8.828125 -16.0625 C 9.515625 -16.0625 10.207031 -15.957031 10.90625 -15.75 C 11.601562 -15.539062 12.132812 -15.328125 12.5 -15.109375 L 13.015625 -14.796875 C 13.273438 -14.640625 13.476562 -14.507812 13.625 -14.40625 C 14 -14.101562 14.1875 -13.757812 14.1875 -13.375 C 14.1875 -13 14.035156 -12.597656 13.734375 -12.171875 C 13.171875 -11.390625 12.664062 -11 12.21875 -11 C 11.957031 -11 11.585938 -11.160156 11.109375 -11.484375 C 10.503906 -11.972656 9.695312 -12.21875 8.6875 -12.21875 C 7.738281 -12.21875 6.8125 -11.894531 5.90625 -11.25 C 5.46875 -10.925781 5.101562 -10.472656 4.8125 -9.890625 C 4.53125 -9.316406 4.390625 -8.664062 4.390625 -7.9375 C 4.390625 -7.207031 4.53125 -6.550781 4.8125 -5.96875 C 5.101562 -5.382812 5.472656 -4.925781 5.921875 -4.59375 C 6.804688 -3.957031 7.726562 -3.640625 8.6875 -3.640625 C 9.132812 -3.640625 9.554688 -3.695312 9.953125 -3.8125 C 10.347656 -3.9375 10.632812 -4.054688 10.8125 -4.171875 Z M 10.8125 -4.171875 "/></g></g></g><g fill="#0098da" fill-opacity="1"><g transform="translate(169.479489, 190.895753)"><g><path d="M 5.34375 -2.0625 L 5.53125 -2.203125 C 5.78125 -2.347656 5.953125 -2.421875 6.046875 -2.421875 C 6.273438 -2.421875 6.515625 -2.21875 6.765625 -1.8125 C 6.929688 -1.5625 7.015625 -1.359375 7.015625 -1.203125 C 7.015625 -1.054688 6.960938 -0.929688 6.859375 -0.828125 C 6.765625 -0.734375 6.648438 -0.644531 6.515625 -0.5625 C 6.390625 -0.488281 6.269531 -0.414062 6.15625 -0.34375 C 6.039062 -0.269531 5.800781 -0.175781 5.4375 -0.0625 C 5.070312 0.0507812 4.71875 0.109375 4.375 0.109375 C 4.03125 0.109375 3.6875 0.0664062 3.34375 -0.015625 C 3 -0.109375 2.640625 -0.257812 2.265625 -0.46875 C 1.898438 -0.6875 1.570312 -0.945312 1.28125 -1.25 C 0.988281 -1.550781 0.742188 -1.941406 0.546875 -2.421875 C 0.359375 -2.898438 0.265625 -3.414062 0.265625 -3.96875 C 0.265625 -4.53125 0.359375 -5.035156 0.546875 -5.484375 C 0.734375 -5.941406 0.972656 -6.316406 1.265625 -6.609375 C 1.554688 -6.910156 1.882812 -7.160156 2.25 -7.359375 C 2.957031 -7.742188 3.664062 -7.9375 4.375 -7.9375 C 4.707031 -7.9375 5.046875 -7.882812 5.390625 -7.78125 C 5.742188 -7.675781 6.007812 -7.570312 6.1875 -7.46875 L 6.4375 -7.328125 C 6.570312 -7.242188 6.671875 -7.175781 6.734375 -7.125 C 6.921875 -6.976562 7.015625 -6.804688 7.015625 -6.609375 C 7.015625 -6.421875 6.941406 -6.222656 6.796875 -6.015625 C 6.515625 -5.628906 6.265625 -5.4375 6.046875 -5.4375 C 5.910156 -5.4375 5.726562 -5.515625 5.5 -5.671875 C 5.195312 -5.921875 4.796875 -6.046875 4.296875 -6.046875 C 3.828125 -6.046875 3.367188 -5.882812 2.921875 -5.5625 C 2.703125 -5.40625 2.519531 -5.179688 2.375 -4.890625 C 2.238281 -4.609375 2.171875 -4.285156 2.171875 -3.921875 C 2.171875 -3.554688 2.238281 -3.226562 2.375 -2.9375 C 2.519531 -2.65625 2.707031 -2.4375 2.9375 -2.28125 C 3.363281 -1.957031 3.816406 -1.796875 4.296875 -1.796875 C 4.515625 -1.796875 4.722656 -1.820312 4.921875 -1.875 C 5.117188 -1.9375 5.257812 -2 5.34375 -2.0625 Z M 5.34375 -2.0625 "/></g></g></g><g fill="#0098da" fill-opacity="1"><g transform="translate(180.529191, 190.895753)"><g><path d="M 5.28125 -7.578125 C 5.34375 -7.679688 5.441406 -7.753906 5.578125 -7.796875 C 5.710938 -7.847656 5.882812 -7.875 6.09375 -7.875 C 6.300781 -7.875 6.460938 -7.851562 6.578125 -7.8125 C 6.703125 -7.78125 6.796875 -7.738281 6.859375 -7.6875 C 6.929688 -7.632812 6.984375 -7.5625 7.015625 -7.46875 C 7.054688 -7.34375 7.078125 -7.15625 7.078125 -6.90625 L 7.078125 -0.953125 C 7.078125 -0.785156 7.070312 -0.660156 7.0625 -0.578125 C 7.050781 -0.503906 7.015625 -0.410156 6.953125 -0.296875 C 6.859375 -0.109375 6.582031 -0.015625 6.125 -0.015625 C 5.613281 -0.015625 5.316406 -0.144531 5.234375 -0.40625 C 5.191406 -0.53125 5.171875 -0.71875 5.171875 -0.96875 L 5.171875 -3.140625 L 2.328125 -3.140625 L 2.328125 -0.953125 C 2.328125 -0.785156 2.320312 -0.660156 2.3125 -0.578125 C 2.300781 -0.503906 2.269531 -0.410156 2.21875 -0.296875 C 2.113281 -0.109375 1.832031 -0.015625 1.375 -0.015625 C 0.875 -0.015625 0.582031 -0.144531 0.5 -0.40625 C 0.445312 -0.53125 0.421875 -0.71875 0.421875 -0.96875 L 0.421875 -6.921875 C 0.421875 -7.085938 0.425781 -7.210938 0.4375 -7.296875 C 0.457031 -7.378906 0.492188 -7.472656 0.546875 -7.578125 C 0.648438 -7.773438 0.929688 -7.875 1.390625 -7.875 C 1.890625 -7.875 2.1875 -7.738281 2.28125 -7.46875 C 2.3125 -7.34375 2.328125 -7.15625 2.328125 -6.90625 L 2.328125 -4.71875 L 5.171875 -4.71875 L 5.171875 -6.921875 C 5.171875 -7.085938 5.175781 -7.210938 5.1875 -7.296875 C 5.195312 -7.378906 5.226562 -7.472656 5.28125 -7.578125 Z M 5.28125 -7.578125 "/></g></g></g><g fill="#0098da" fill-opacity="1"><g transform="translate(191.793606, 190.895753)"><g><path d="M 0.421875 -6.921875 C 0.421875 -7.085938 0.425781 -7.210938 0.4375 -7.296875 C 0.457031 -7.378906 0.492188 -7.472656 0.546875 -7.578125 C 0.648438 -7.773438 0.929688 -7.875 1.390625 -7.875 C 1.890625 -7.875 2.1875 -7.738281 2.28125 -7.46875 C 2.3125 -7.34375 2.328125 -7.15625 2.328125 -6.90625 L 2.328125 -0.9375 C 2.328125 -0.769531 2.320312 -0.644531 2.3125 -0.5625 C 2.300781 -0.488281 2.269531 -0.398438 2.21875 -0.296875 C 2.113281 -0.0976562 1.832031 0 1.375 0 C 0.875 0 0.582031 -0.132812 0.5 -0.40625 C 0.445312 -0.519531 0.421875 -0.703125 0.421875 -0.953125 Z M 0.421875 -6.921875 "/></g></g></g><g fill="#0098da" fill-opacity="1"><g transform="translate(198.312884, 190.895753)"><g><path d="M 2.328125 -1.59375 L 5.25 -1.59375 C 5.488281 -1.59375 5.660156 -1.5625 5.765625 -1.5 C 5.867188 -1.445312 5.9375 -1.363281 5.96875 -1.25 C 6.007812 -1.132812 6.03125 -0.984375 6.03125 -0.796875 C 6.03125 -0.609375 6.007812 -0.457031 5.96875 -0.34375 C 5.9375 -0.226562 5.878906 -0.148438 5.796875 -0.109375 C 5.660156 -0.0351562 5.472656 0 5.234375 0 L 1.375 0 C 0.875 0 0.582031 -0.132812 0.5 -0.40625 C 0.445312 -0.519531 0.421875 -0.703125 0.421875 -0.953125 L 0.421875 -6.921875 C 0.421875 -7.085938 0.425781 -7.210938 0.4375 -7.296875 C 0.457031 -7.378906 0.492188 -7.472656 0.546875 -7.578125 C 0.648438 -7.773438 0.929688 -7.875 1.390625 -7.875 C 1.890625 -7.875 2.1875 -7.738281 2.28125 -7.46875 C 2.3125 -7.34375 2.328125 -7.15625 2.328125 -6.90625 Z M 2.328125 -1.59375 "/></g></g></g><g fill="#0098da" fill-opacity="1"><g transform="translate(208.37492, 190.895753)"><g><path d="M 2.328125 -1.59375 L 5.25 -1.59375 C 5.488281 -1.59375 5.660156 -1.5625 5.765625 -1.5 C 5.867188 -1.445312 5.9375 -1.363281 5.96875 -1.25 C 6.007812 -1.132812 6.03125 -0.984375 6.03125 -0.796875 C 6.03125 -0.609375 6.007812 -0.457031 5.96875 -0.34375 C 5.9375 -0.226562 5.878906 -0.148438 5.796875 -0.109375 C 5.660156 -0.0351562 5.472656 0 5.234375 0 L 1.375 0 C 0.875 0 0.582031 -0.132812 0.5 -0.40625 C 0.445312 -0.519531 0.421875 -0.703125 0.421875 -0.953125 L 0.421875 -6.921875 C 0.421875 -7.085938 0.425781 -7.210938 0.4375 -7.296875 C 0.457031 -7.378906 0.492188 -7.472656 0.546875 -7.578125 C 0.648438 -7.773438 0.929688 -7.875 1.390625 -7.875 C 1.890625 -7.875 2.1875 -7.738281 2.28125 -7.46875 C 2.3125 -7.34375 2.328125 -7.15625 2.328125 -6.90625 Z M 2.328125 -1.59375 "/></g></g></g><g fill="#0098da" fill-opacity="1"><g transform="translate(218.436955, 190.895753)"><g/></g></g><g fill="#0098da" fill-opacity="1"><g transform="translate(224.913298, 190.895753)"><g><path d="M 5.4375 -1.890625 C 5.726562 -1.890625 5.9375 -1.851562 6.0625 -1.78125 C 6.1875 -1.71875 6.269531 -1.613281 6.3125 -1.46875 C 6.351562 -1.332031 6.375 -1.148438 6.375 -0.921875 C 6.375 -0.703125 6.347656 -0.523438 6.296875 -0.390625 C 6.253906 -0.253906 6.179688 -0.160156 6.078125 -0.109375 C 5.921875 -0.0234375 5.695312 0.015625 5.40625 0.015625 L 1.21875 0.015625 C 0.957031 0.015625 0.734375 -0.078125 0.546875 -0.265625 C 0.359375 -0.460938 0.265625 -0.6875 0.265625 -0.9375 C 0.265625 -1.332031 0.398438 -1.691406 0.671875 -2.015625 C 0.941406 -2.335938 1.265625 -2.613281 1.640625 -2.84375 C 2.023438 -3.082031 2.40625 -3.3125 2.78125 -3.53125 C 3.15625 -3.757812 3.476562 -4.015625 3.75 -4.296875 C 4.019531 -4.585938 4.15625 -4.894531 4.15625 -5.21875 C 4.15625 -5.28125 4.128906 -5.367188 4.078125 -5.484375 C 4.023438 -5.609375 3.96875 -5.707031 3.90625 -5.78125 C 3.851562 -5.851562 3.757812 -5.921875 3.625 -5.984375 C 3.5 -6.054688 3.320312 -6.09375 3.09375 -6.09375 C 2.863281 -6.09375 2.664062 -6.003906 2.5 -5.828125 C 2.332031 -5.660156 2.238281 -5.492188 2.21875 -5.328125 L 2.171875 -5.09375 L 2.171875 -5.03125 C 2.171875 -4.863281 2.164062 -4.738281 2.15625 -4.65625 C 2.144531 -4.582031 2.109375 -4.5 2.046875 -4.40625 C 1.941406 -4.226562 1.664062 -4.140625 1.21875 -4.140625 C 0.71875 -4.140625 0.421875 -4.273438 0.328125 -4.546875 C 0.285156 -4.660156 0.265625 -4.84375 0.265625 -5.09375 C 0.265625 -5.84375 0.53125 -6.507812 1.0625 -7.09375 C 1.601562 -7.6875 2.300781 -7.984375 3.15625 -7.984375 C 4.019531 -7.984375 4.71875 -7.679688 5.25 -7.078125 C 5.789062 -6.484375 6.0625 -5.804688 6.0625 -5.046875 C 6.0625 -4.640625 5.972656 -4.253906 5.796875 -3.890625 C 5.617188 -3.523438 5.40625 -3.226562 5.15625 -3 C 4.625 -2.53125 4.148438 -2.210938 3.734375 -2.046875 L 3.46875 -1.9375 L 3.46875 -1.890625 Z M 5.4375 -1.890625 "/></g></g></g><g fill="#0098da" fill-opacity="1"><g transform="translate(235.211516, 190.895753)"><g><path d="M 4.125 -7.609375 C 4.1875 -7.710938 4.285156 -7.78125 4.421875 -7.8125 C 4.566406 -7.851562 4.75 -7.875 4.96875 -7.875 C 5.195312 -7.875 5.378906 -7.847656 5.515625 -7.796875 C 5.648438 -7.753906 5.742188 -7.679688 5.796875 -7.578125 C 5.859375 -7.472656 5.894531 -7.378906 5.90625 -7.296875 C 5.914062 -7.210938 5.921875 -7.085938 5.921875 -6.921875 L 5.921875 -0.953125 C 5.921875 -0.671875 5.882812 -0.460938 5.8125 -0.328125 C 5.75 -0.203125 5.644531 -0.117188 5.5 -0.078125 C 5.363281 -0.0351562 5.191406 -0.015625 4.984375 -0.015625 C 4.785156 -0.015625 4.625 -0.03125 4.5 -0.0625 C 4.375 -0.101562 4.28125 -0.144531 4.21875 -0.1875 C 4.15625 -0.238281 4.109375 -0.3125 4.078125 -0.40625 C 4.035156 -0.53125 4.015625 -0.71875 4.015625 -0.96875 L 4.015625 -2.28125 L 1.109375 -2.28125 C 0.609375 -2.28125 0.3125 -2.414062 0.21875 -2.6875 C 0.175781 -2.800781 0.15625 -2.953125 0.15625 -3.140625 C 0.15625 -3.335938 0.164062 -3.484375 0.1875 -3.578125 L 1.078125 -7.171875 C 1.128906 -7.335938 1.171875 -7.460938 1.203125 -7.546875 C 1.234375 -7.628906 1.296875 -7.707031 1.390625 -7.78125 C 1.484375 -7.863281 1.601562 -7.90625 1.75 -7.90625 C 1.90625 -7.90625 2.070312 -7.882812 2.25 -7.84375 C 2.75 -7.695312 3 -7.46875 3 -7.15625 C 3 -7.039062 2.976562 -6.890625 2.9375 -6.703125 C 2.925781 -6.679688 2.921875 -6.671875 2.921875 -6.671875 L 2.265625 -4.046875 L 4.015625 -4.046875 L 4.015625 -6.984375 C 4.015625 -7.140625 4.019531 -7.253906 4.03125 -7.328125 C 4.039062 -7.410156 4.070312 -7.503906 4.125 -7.609375 Z M 4.125 -7.609375 "/></g></g></g><g fill="#0098da" fill-opacity="1"><g transform="translate(245.327219, 190.895753)"><g><path d="M 1.890625 0.078125 C 1.828125 0.203125 1.78125 0.289062 1.75 0.34375 C 1.71875 0.40625 1.664062 0.460938 1.59375 0.515625 C 1.519531 0.566406 1.421875 0.59375 1.296875 0.59375 C 1.171875 0.59375 0.988281 0.539062 0.75 0.4375 C 0.519531 0.332031 0.363281 0.238281 0.28125 0.15625 C 0.195312 0.0703125 0.15625 -0.015625 0.15625 -0.109375 C 0.15625 -0.210938 0.203125 -0.394531 0.296875 -0.65625 L 3.75 -7.875 C 3.882812 -8.144531 4.003906 -8.300781 4.109375 -8.34375 C 4.171875 -8.375 4.253906 -8.390625 4.359375 -8.390625 C 4.472656 -8.390625 4.65625 -8.332031 4.90625 -8.21875 C 5.289062 -8.03125 5.484375 -7.828125 5.484375 -7.609375 C 5.484375 -7.515625 5.429688 -7.335938 5.328125 -7.078125 Z M 1.890625 0.078125 "/></g></g></g><g fill="#0098da" fill-opacity="1"><g transform="translate(254.734378, 190.895753)"><g><path d="M 4.921875 -7.859375 C 5.421875 -7.859375 5.710938 -7.722656 5.796875 -7.453125 C 5.835938 -7.335938 5.859375 -7.132812 5.859375 -6.84375 C 5.859375 -6.5625 5.765625 -6.207031 5.578125 -5.78125 C 5.390625 -5.351562 5.164062 -4.929688 4.90625 -4.515625 C 4.644531 -4.097656 4.382812 -3.679688 4.125 -3.265625 C 3.488281 -2.242188 3.171875 -1.421875 3.171875 -0.796875 C 3.171875 -0.640625 3.164062 -0.519531 3.15625 -0.4375 C 3.144531 -0.363281 3.109375 -0.285156 3.046875 -0.203125 C 2.992188 -0.117188 2.898438 -0.0625 2.765625 -0.03125 C 2.628906 -0.0078125 2.445312 0 2.21875 0 C 1.988281 0 1.804688 -0.0078125 1.671875 -0.03125 C 1.546875 -0.0625 1.453125 -0.117188 1.390625 -0.203125 C 1.335938 -0.296875 1.304688 -0.378906 1.296875 -0.453125 C 1.285156 -0.523438 1.28125 -0.644531 1.28125 -0.8125 C 1.28125 -1.28125 1.359375 -1.757812 1.515625 -2.25 C 1.671875 -2.738281 1.859375 -3.175781 2.078125 -3.5625 C 2.304688 -3.945312 2.53125 -4.300781 2.75 -4.625 C 2.96875 -4.957031 3.15625 -5.238281 3.3125 -5.46875 C 3.46875 -5.695312 3.546875 -5.859375 3.546875 -5.953125 L 1.109375 -5.953125 C 0.816406 -5.953125 0.609375 -5.988281 0.484375 -6.0625 C 0.359375 -6.132812 0.269531 -6.238281 0.21875 -6.375 C 0.175781 -6.507812 0.15625 -6.6875 0.15625 -6.90625 C 0.15625 -7.132812 0.175781 -7.316406 0.21875 -7.453125 C 0.269531 -7.585938 0.335938 -7.679688 0.421875 -7.734375 C 0.578125 -7.816406 0.785156 -7.859375 1.046875 -7.859375 Z M 4.921875 -7.859375 "/></g></g></g></svg>